
        <svg xmlns="http://www.w3.org/2000/svg" xmlns:xlink="http://www.w3.org/1999/xlink" version="1.1" width="3193.548387096774" height="949.7482976106794" viewBox="0 0 3193.548387096774 949.7482976106794">
			
			<g transform="scale(9.67741935483871) translate(10, 10)">
				<defs id="SvgjsDefs2581"/><g id="SvgjsG2582" featureKey="symbolFeature-0" transform="matrix(0.09460619088757143,0,0,0.09460619088757143,-13.321358924619354,-8.29716812109613)" fill="#000"><g xmlns="http://www.w3.org/2000/svg"><path d="M552.6,185.7l171.7,178.6l0,0c-0.9,6.3-0.7,12.9,0.9,19.5c6.7,27.3,34.4,44,61.7,37.3   c27.3-6.7,44-34.4,37.3-61.7c-6.7-27.2-34.3-43.9-61.5-37.3l0,0L585.4,137.5c-14.5-15.1-36.2-21.4-56.6-16.4l-264.5,65.3   c-20.4,5-36.7,20.7-42.5,40.8l-80.1,276.8c-1.1,3.8-1.2,7.9-0.2,11.7c0.9,3.8,2.9,7.4,5.7,10.3c5.7,5.9,13.8,8.3,21.8,6.3l7.1-1.8   c11.6-2.9,20.8-11.7,24.1-23.2l73.1-252.7c2.3-7.8,8.5-13.8,16.4-15.8l241.1-59.5C538.6,177.5,547,179.9,552.6,185.7z M779,339   L779,339c13.1,1.7,24.4,11.2,27.7,24.7c0.4,1.6,0.7,3.3,0.8,4.9l0,0c0.2,2,0.2,4,0,6c-1.3,13.6-10.9,25.4-24.9,28.9   c-15.3,3.8-30.8-3.9-37.5-17.5c-1-2-1.8-4.2-2.4-6.5c-4.4-17.6,6.4-35.5,24.1-39.9C771,338.6,775.1,338.4,779,339z"/><path d="M803,773.2l80.1-276.9c1.1-3.9,1.2-8,0.3-11.9c-1-3.9-2.9-7.5-5.7-10.4c-5.7-6-14-8.3-22-6.4l-9.8,2.4   c-9.6,2.4-17.3,9.7-20,19.2l-74.2,256.4c-2.2,7.5-8.2,13.2-15.7,15.1l-242.3,59.8c-7.5,1.9-15.5-0.5-20.9-6.1L308.4,639.8   c1.8-7.6,1.9-15.8-0.1-23.9c-6.7-27.3-34.4-44-61.7-37.3c-27.3,6.7-44,34.4-37.3,61.7c6.1,24.7,29.4,40.8,54,38.6l176.7,183.8   c14.3,14.9,35.6,21,55.6,16.1l265.7-65.6C781.3,808.4,797.3,793,803,773.2z M241.2,656c-4.5-2.8-8.3-6.7-11-11.4   c-1.5-2.6-2.7-5.5-3.4-8.5c-0.1-0.3-0.2-0.7-0.2-1c-3.7-17.3,7-34.6,24.3-38.9c17.6-4.4,35.5,6.4,39.9,24.1c0.4,1.7,0.7,3.4,0.8,5   c1.4,15.9-8.9,30.9-24.9,34.8C257.6,662.3,248.5,660.6,241.2,656z"/><path d="M482,642.3L386.7,254c-1.7-6.8,11-13,18.7-9.1l18.1,9.2c14.5,7.3,24,18.2,27.1,31.1l94.6,385.4   c1.7,6.8-11,13-18.7,9.1l-21.3-10.8C492.9,662.6,484.7,653.3,482,642.3z"/><path d="M374.3,510l-59-240.4c-1-4.2,11.9-9.3,19.1-7.5l16.9,4.3c13.5,3.4,21.9,9.6,23.8,17.5l58.6,238.7   c1,4.2-11.9,9.3-19.1,7.5l-19.9-5C383.1,522.1,376,516.9,374.3,510z"/><path d="M657.7,723.4l-59-240.4c-1-4.2,11.9-9.3,19.1-7.5l16.9,4.3c13.5,3.4,21.9,9.6,23.8,17.5l58.6,238.7   c1,4.2-11.9,9.3-19.1,7.5l-19.9-5C666.5,735.4,659.4,730.2,657.7,723.4z"/><path d="M585,713.8l-95.3-388.2c-1.7-6.8,11-13,18.7-9.1l18.1,9.2c14.5,7.3,24,18.2,27.1,31.1l94.6,385.4   c1.7,6.8-11,13-18.7,9.1l-21.3-10.8C595.9,734.1,587.7,724.7,585,713.8z"/></g></g><g id="SvgjsG2583" featureKey="nameFeature-0" transform="matrix(1.2443657785947013,0,0,1.2443657785947013,89.0272779170627,-14.65489393272085)" fill="#000"><path d="M20.02 11.777000000000001 l0 5.1563 l-6.6992 0 l0 23.066 l-5.8008 0 l0 -23.066 l-6.7383 0 l0 -5.1563 l19.238 0 z M44.247984375 40 l-2.0508 -5.8203 l-11.855 0 l-2.0508 5.8203 l-5.9961 0 l10.391 -28.223 l7.168 0 l10.391 28.223 l-5.9961 0 z M32.060984375000004 29.277 l8.418 0 l-4.1992 -11.973 z M74.66828125 11.777000000000001 l5.8398 0 l0 28.223 l-6.7773 0 l-12.5 -20.176 l0 20.176 l-5.8398 0 l0 -28.223 l6.6992 0 l12.578 20.059 l0 -20.059 z M100.0194875 40 l0 -28.223 l10.215 0 c9.0039 0 13.457 5.6641 13.457 14.102 c0 8.457 -4.4531 14.121 -13.457 14.121 l-10.215 0 z M105.8788875 34.8242 l4.0625 0 c5.1953 0 7.5781 -3.2422 7.5781 -8.9453 s-2.3828 -8.9453 -7.5781 -8.9453 l-4.0625 0 l0 17.891 z M146.455546875 16.934 l-10.469 0 l0 6.4063 l9.2773 0 l0 5.0977 l-9.2773 0 l0 6.3867 l10.469 0 l0 5.1758 l-16.367 0 l0 -28.223 l16.367 0 l0 5.1563 z M171.34809375 11.777000000000001 l6.2305 0 l-10.43 28.223 l-6.4453 0 l-10.371 -28.223 l6.2109 0 l7.4023 21.387 z"/></g><g id="SvgjsG2584" featureKey="sloganFeature-0" transform="matrix(2.163225236987606,0,0,2.163225236987606,90.00000025787655,34.486721964899985)" fill="#000"><path d="M6.9 20 l-5.8 -12.88 l0 12.88 l-1.1 0 l0 -15 l1.18 0 l5.8 12.3 l0.14 -12.3 l1.08 0 l0 15 l-1.3 0 z M9.860000000000001 20 l0 -15 l7.36 0 l0 1.16 l-6.32 0 l0 5.7 l6.26 0 l0 0.92 l-6.26 0 l0 6.06 l6.46 0 l0 1.16 l-7.5 0 z M22.74 20 l-0.86 0 l-4.14 -15 l1.06 0 l3.5 13.26 l3.58 -13.26 l1.02 0 z M27.7 20 l0 -15 l7.36 0 l0 1.16 l-6.32 0 l0 5.7 l6.26 0 l0 0.92 l-6.26 0 l0 6.06 l6.46 0 l0 1.16 l-7.5 0 z M43.64 20 l-3.3 -6.22 l-3.06 0 l0 6.22 l-0.98 0 l0 -15 l3.4 0 c0.78666 0 1.46 0.11666 2.02 0.35 s1.02 0.55 1.38 0.95 s0.62666 0.86334 0.8 1.39 s0.26 1.0767 0.26 1.65 c0 0.97334 -0.25 1.85 -0.75 2.63 s-1.1567 1.35 -1.97 1.71 l3.52 6.32 l-1.32 0 z M39.56 5.92 l-2.28 -0.000019531 l0 6.84 l2.42 0 c0.68 0 1.24 -0.10334 1.68 -0.31 s0.78334 -0.47332 1.03 -0.79998 s0.42 -0.7 0.52 -1.12 s0.15 -0.85 0.15 -1.29 c0 -0.46666 -0.08 -0.9 -0.24 -1.3 s-0.39 -0.75 -0.69 -1.05 s-0.66666 -0.53666 -1.1 -0.71 s-0.93 -0.26 -1.49 -0.26 z M53.220000000000006 20.18 c-1.2667 0 -2.2134 -0.33334 -2.84 -1 s-0.94 -1.6533 -0.94 -2.96 l0 -7.4 c0 -1.3333 0.31334 -2.3266 0.94 -2.98 s1.64 -0.98 3.04 -0.98 c1.32 0 2.2866 0.33 2.9 0.99 s0.92 1.6367 0.92 2.93 l0 1.08 l-1.08 0 l0 -1.28 c0 -0.33334 -0.04 -0.67 -0.12 -1.01 s-0.22334 -0.65 -0.43 -0.93 s-0.49 -0.50666 -0.85 -0.68 s-0.82 -0.26 -1.38 -0.26 s-1.0233 0.07666 -1.39 0.23 s-0.66 0.37 -0.88 0.65 s-0.37666 0.61 -0.47 0.99 s-0.14 0.79666 -0.14 1.25 l0 7.48 c0 0.46666 0.04666 0.88332 0.14 1.25 s0.25 0.67666 0.47 0.93 s0.50666 0.44668 0.86 0.58002 s0.78334 0.2 1.29 0.2 c0.56 0 1.0267 -0.07 1.4 -0.21 s0.67334 -0.33666 0.9 -0.59 s0.39 -0.56 0.49 -0.92 s0.15 -0.75334 0.15 -1.18 l0 -2.94 l-3.14 -0.02 l0 -0.98 l4.18 0.02 l0 3.78 c0 1.32 -0.30666 2.31 -0.92 2.97 s-1.6467 0.99 -3.1 0.99 z M59.06 20 l0 -15 l1.28 0 l0 15 l-1.28 0 z M67.34 20 l-0.86 0 l-4.14 -15 l1.06 0 l3.5 13.26 l3.58 -13.26 l1.02 0 z M72.3 20 l0 -15 l7.36 0 l0 1.16 l-6.32 0 l0 5.7 l6.26 0 l0 0.92 l-6.26 0 l0 6.06 l6.46 0 l0 1.16 l-7.5 0 z M88.32000000000001 20.18 c-1.2267 0 -2.1768 -0.33336 -2.85 -1 s-1.01 -1.6533 -1.01 -2.96 l0 -11.22 l1.08 0 l0 11.16 c0 0.32 0.04334 0.65666 0.13 1.01 s0.23666 0.67334 0.45 0.96 s0.49668 0.52332 0.85002 0.70998 s0.79 0.28 1.31 0.28 c0.57334 0 1.0467 -0.08334 1.42 -0.25 s0.67334 -0.39666 0.9 -0.69 s0.38666 -0.64 0.48 -1.04 s0.14 -0.82666 0.14 -1.28 l0 -10.86 l1.06 0 l0 11.22 c0 1.3333 -0.32334 2.3266 -0.97 2.98 s-1.6433 0.98 -2.99 0.98 z M97.16000000000001 14.36 l-2.16 0 l0 5.64 l-1.16 0 l0 -15 l3.62 0 c1.32 0 2.3566 0.40334 3.11 1.21 s1.13 1.9767 1.13 3.51 c0 0.68 -0.11 1.3033 -0.33 1.87 s-0.53 1.0567 -0.93 1.47 s-0.87666 0.73334 -1.43 0.96 s-1.17 0.34 -1.85 0.34 z M97.06000000000002 6.02 l-2.06 0.000019531 l0 7.24 l1.86 0 c0.68 0 1.2533 -0.09666 1.72 -0.29 s0.84332 -0.45334 1.13 -0.78 s0.49332 -0.70666 0.61998 -1.14 s0.19 -0.89 0.19 -1.37 c0 -0.49334 -0.04666 -0.96334 -0.14 -1.41 s-0.26668 -0.83666 -0.52002 -1.17 s-0.60668 -0.59668 -1.06 -0.79002 s-1.0333 -0.29 -1.74 -0.29 z"/></g>
			</g>
		</svg>
	